<svg width="128" height="128" viewBox="0 0 128 128" fill="none" xmlns="http://www.w3.org/2000/svg">
<rect width="128" height="128" rx="35" fill="#1C1C1C"/>
<path d="M29.336 49.4C32.248 49.4 34.776 49.88 36.92 50.84C39.096 51.8 40.76 53.176 41.912 54.968C43.064 56.76 43.64 58.888 43.64 61.352C43.64 63.784 43.064 65.912 41.912 67.736C40.76 69.528 39.096 70.904 36.92 71.864C34.776 72.824 32.248 73.304 29.336 73.304H21.752V83H15.512V49.4H29.336ZM29.048 68.024C31.768 68.024 33.832 67.448 35.24 66.296C36.648 65.144 37.352 63.496 37.352 61.352C37.352 59.208 36.648 57.56 35.24 56.408C33.832 55.256 31.768 54.68 29.048 54.68H21.752V68.024H29.048ZM63.6954 49.4C66.6074 49.4 69.1354 49.88 71.2794 50.84C73.4554 51.8 75.1194 53.176 76.2714 54.968C77.4234 56.76 77.9994 58.888 77.9994 61.352C77.9994 63.784 77.4234 65.912 76.2714 67.736C75.1194 69.528 73.4554 70.904 71.2794 71.864C69.1354 72.824 66.6074 73.304 63.6954 73.304H56.1114V83H49.8714V49.4H63.6954ZM63.4074 68.024C66.1274 68.024 68.1914 67.448 69.5994 66.296C71.0074 65.144 71.7114 63.496 71.7114 61.352C71.7114 59.208 71.0074 57.56 69.5994 56.408C68.1914 55.256 66.1274 54.68 63.4074 54.68H56.1114V68.024H63.4074ZM100.252 83.48C96.8595 83.48 93.7875 82.744 91.0355 81.272C88.3155 79.768 86.1715 77.704 84.6035 75.08C83.0675 72.456 82.2995 69.496 82.2995 66.2C82.2995 62.904 83.0835 59.944 84.6515 57.32C86.2195 54.696 88.3635 52.648 91.0835 51.176C93.8355 49.672 96.9075 48.92 100.3 48.92C103.052 48.92 105.564 49.4 107.836 50.36C110.108 51.32 112.028 52.712 113.596 54.536L109.564 58.328C107.132 55.704 104.14 54.392 100.588 54.392C98.2835 54.392 96.2195 54.904 94.3955 55.928C92.5715 56.92 91.1475 58.312 90.1235 60.104C89.0995 61.896 88.5875 63.928 88.5875 66.2C88.5875 68.472 89.0995 70.504 90.1235 72.296C91.1475 74.088 92.5715 75.496 94.3955 76.52C96.2195 77.512 98.2835 78.008 100.588 78.008C104.14 78.008 107.132 76.68 109.564 74.024L113.596 77.864C112.028 79.688 110.092 81.08 107.788 82.04C105.516 83 103.004 83.48 100.252 83.48Z" fill="white"/>
</svg>
